TITLE ""
FILE "P1Q_j_1842-1855.mp3" MP3
  TRACK 01 AUDIO
    TITLE "P1Q_j_1842-1855_01"
    INDEX 01 00:00:00
  TRACK 02 AUDIO
    TITLE "P1Q_j_1842-1855_02"
    INDEX 01 00:01:23
  TRACK 03 AUDIO
    TITLE "P1Q_j_1842-1855_03"
    INDEX 01 00:01:45
  TRACK 04 AUDIO
    TITLE "P1Q_j_1842-1855_04"
    INDEX 01 00:05:70
  TRACK 05 AUDIO
    TITLE "P1Q_j_1842-1855_05"
    INDEX 01 00:06:15
  TRACK 06 AUDIO
    TITLE "P1Q_j_1842-1855_06"
    INDEX 01 00:09:48
  TRACK 07 AUDIO
    TITLE "P1Q_j_1842-1855_07"
    INDEX 01 00:10:20
  TRACK 08 AUDIO
    TITLE "P1Q_j_1842-1855_08"
    INDEX 01 00:11:61
  TRACK 09 AUDIO
    TITLE "P1Q_j_1842-1855_09"
    INDEX 01 00:12:08
  TRACK 10 AUDIO
    TITLE "P1Q_j_1842-1855_10"
    INDEX 01 00:16:56
  TRACK 11 AUDIO
    TITLE "P1Q_j_1842-1855_11"
    INDEX 01 00:16:74
  TRACK 12 AUDIO
    TITLE "P1Q_j_1842-1855_12"
    INDEX 01 00:20:50
  TRACK 13 AUDIO
    TITLE "P1Q_j_1842-1855_13"
    INDEX 01 00:21:22
  TRACK 14 AUDIO
    TITLE "P1Q_j_1842-1855_14"
    INDEX 01 00:22:57
  TRACK 15 AUDIO
    TITLE "P1Q_j_1842-1855_15"
    INDEX 01 00:23:03
  TRACK 16 AUDIO
    TITLE "P1Q_j_1842-1855_16"
    INDEX 01 00:26:21
  TRACK 17 AUDIO
    TITLE "P1Q_j_1842-1855_17"
    INDEX 01 00:26:43
  TRACK 18 AUDIO
    TITLE "P1Q_j_1842-1855_18"
    INDEX 01 00:30:70
  TRACK 19 AUDIO
    TITLE "P1Q_j_1842-1855_19"
    INDEX 01 00:31:42
  TRACK 20 AUDIO
    TITLE "P1Q_j_1842-1855_20"
    INDEX 01 00:33:14
  TRACK 21 AUDIO
    TITLE "P1Q_j_1842-1855_21"
    INDEX 01 00:33:31
  TRACK 22 AUDIO
    TITLE "P1Q_j_1842-1855_22"
    INDEX 01 00:38:21
  TRACK 23 AUDIO
    TITLE "P1Q_j_1842-1855_23"
    INDEX 01 00:38:46
  TRACK 24 AUDIO
    TITLE "P1Q_j_1842-1855_24"
    INDEX 01 00:43:28
  TRACK 25 AUDIO
    TITLE "P1Q_j_1842-1855_25"
    INDEX 01 00:44:02
  TRACK 26 AUDIO
    TITLE "P1Q_j_1842-1855_26"
    INDEX 01 00:45:38
  TRACK 27 AUDIO
    TITLE "P1Q_j_1842-1855_27"
    INDEX 01 00:45:58
  TRACK 28 AUDIO
    TITLE "P1Q_j_1842-1855_28"
    INDEX 01 00:53:28
  TRACK 29 AUDIO
    TITLE "P1Q_j_1842-1855_29"
    INDEX 01 00:53:48
  TRACK 30 AUDIO
    TITLE "P1Q_j_1842-1855_30"
    INDEX 01 01:00:38
  TRACK 31 AUDIO
    TITLE "P1Q_j_1842-1855_31"
    INDEX 01 01:01:10
  TRACK 32 AUDIO
    TITLE "P1Q_j_1842-1855_32"
    INDEX 01 01:02:33
  TRACK 33 AUDIO
    TITLE "P1Q_j_1842-1855_33"
    INDEX 01 01:02:54
  TRACK 34 AUDIO
    TITLE "P1Q_j_1842-1855_34"
    INDEX 01 01:07:24
  TRACK 35 AUDIO
    TITLE "P1Q_j_1842-1855_35"
    INDEX 01 01:07:42
  TRACK 36 AUDIO
    TITLE "P1Q_j_1842-1855_36"
    INDEX 01 01:11:52
  TRACK 37 AUDIO
    TITLE "P1Q_j_1842-1855_37"
    INDEX 01 01:12:25
  TRACK 38 AUDIO
    TITLE "P1Q_j_1842-1855_38"
    INDEX 01 01:13:68
  TRACK 39 AUDIO
    TITLE "P1Q_j_1842-1855_39"
    INDEX 01 01:14:13
  TRACK 40 AUDIO
    TITLE "P1Q_j_1842-1855_40"
    INDEX 01 01:18:42
  TRACK 41 AUDIO
    TITLE "P1Q_j_1842-1855_41"
    INDEX 01 01:18:61
  TRACK 42 AUDIO
    TITLE "P1Q_j_1842-1855_42"
    INDEX 01 01:23:02
  TRACK 43 AUDIO
    TITLE "P1Q_j_1842-1855_43"
    INDEX 01 01:23:47
  TRACK 44 AUDIO
    TITLE "P1Q_j_1842-1855_44"
    INDEX 01 01:24:70
  TRACK 45 AUDIO
    TITLE "P1Q_j_1842-1855_45"
    INDEX 01 01:25:16
  TRACK 46 AUDIO
    TITLE "P1Q_j_1842-1855_46"
    INDEX 01 01:28:23
  TRACK 47 AUDIO
    TITLE "P1Q_j_1842-1855_47"
    INDEX 01 01:28:42
  TRACK 48 AUDIO
    TITLE "P1Q_j_1842-1855_48"
    INDEX 01 01:32:56
  TRACK 49 AUDIO
    TITLE "P1Q_j_1842-1855_49"
    INDEX 01 01:33:26
  TRACK 50 AUDIO
    TITLE "P1Q_j_1842-1855_50"
    INDEX 01 01:35:32
  TRACK 51 AUDIO
    TITLE "P1Q_j_1842-1855_51"
    INDEX 01 01:35:56
  TRACK 52 AUDIO
    TITLE "P1Q_j_1842-1855_52"
    INDEX 01 01:37:70
  TRACK 53 AUDIO
    TITLE "P1Q_j_1842-1855_53"
    INDEX 01 01:38:15
  TRACK 54 AUDIO
    TITLE "P1Q_j_1842-1855_54"
    INDEX 01 01:43:06
  TRACK 55 AUDIO
    TITLE "P1Q_j_1842-1855_55"
    INDEX 01 01:43:52
  TRACK 56 AUDIO
    TITLE "P1Q_j_1842-1855_56"
    INDEX 01 01:45:17
  TRACK 57 AUDIO
    TITLE "P1Q_j_1842-1855_57"
    INDEX 01 01:45:37
  TRACK 58 AUDIO
    TITLE "P1Q_j_1842-1855_58"
    INDEX 01 01:51:06
  TRACK 59 AUDIO
    TITLE "P1Q_j_1842-1855_59"
    INDEX 01 01:51:27
  TRACK 60 AUDIO
    TITLE "P1Q_j_1842-1855_60"
    INDEX 01 01:55:47
  TRACK 61 AUDIO
    TITLE "P1Q_j_1842-1855_61"
    INDEX 01 01:56:19
  TRACK 62 AUDIO
    TITLE "P1Q_j_1842-1855_62"
    INDEX 01 01:57:73
  TRACK 63 AUDIO
    TITLE "P1Q_j_1842-1855_63"
    INDEX 01 01:58:18
  TRACK 64 AUDIO
    TITLE "P1Q_j_1842-1855_64"
    INDEX 01 02:03:60
  TRACK 65 AUDIO
    TITLE "P1Q_j_1842-1855_65"
    INDEX 01 02:04:07
  TRACK 66 AUDIO
    TITLE "P1Q_j_1842-1855_66"
    INDEX 01 02:07:23
  TRACK 67 AUDIO
    TITLE "P1Q_j_1842-1855_67"
    INDEX 01 02:07:68
  TRACK 68 AUDIO
    TITLE "P1Q_j_1842-1855_68"
    INDEX 01 02:09:33
  TRACK 69 AUDIO
    TITLE "P1Q_j_1842-1855_69"
    INDEX 01 02:09:55
  TRACK 70 AUDIO
    TITLE "P1Q_j_1842-1855_70"
    INDEX 01 02:14:54
  TRACK 71 AUDIO
    TITLE "P1Q_j_1842-1855_71"
    INDEX 01 02:14:72
  TRACK 72 AUDIO
    TITLE "P1Q_j_1842-1855_72"
    INDEX 01 02:18:46
  TRACK 73 AUDIO
    TITLE "P1Q_j_1842-1855_73"
    INDEX 01 02:19:14
  TRACK 74 AUDIO
    TITLE "P1Q_j_1842-1855_74"
    INDEX 01 02:20:51
  TRACK 75 AUDIO
    TITLE "P1Q_j_1842-1855_75"
    INDEX 01 02:20:72
  TRACK 76 AUDIO
    TITLE "P1Q_j_1842-1855_76"
    INDEX 01 02:22:18
  TRACK 77 AUDIO
    TITLE "P1Q_j_1842-1855_77"
    INDEX 01 02:22:36
  TRACK 78 AUDIO
    TITLE "P1Q_j_1842-1855_78"
    INDEX 01 02:27:29
  TRACK 79 AUDIO
    TITLE "P1Q_j_1842-1855_79"
    INDEX 01 02:27:72
  TRACK 80 AUDIO
    TITLE "P1Q_j_1842-1855_80"
    INDEX 01 02:29:38
  TRACK 81 AUDIO
    TITLE "P1Q_j_1842-1855_81"
    INDEX 01 02:29:59
  TRACK 82 AUDIO
    TITLE "P1Q_j_1842-1855_82"
    INDEX 01 02:32:54
  TRACK 83 AUDIO
    TITLE "P1Q_j_1842-1855_83"
    INDEX 01 02:32:72
  TRACK 84 AUDIO
    TITLE "P1Q_j_1842-1855_84"
    INDEX 01 02:37:39
